<?xml version="1.0" encoding="UTF-8"?>
<svg id="Layer_1" data-name="Layer 1" xmlns="http://www.w3.org/2000/svg" viewBox="0 0 162.72 117.18">
  <defs>
    <style>
      .cls-1 {
        fill: #fff200;
        stroke-width: 0px;
      }
    </style>
  </defs>
  <rect class="cls-1" x="28.76" y=".08" width="20.08" height="18.35"/>
  <path class="cls-1" d="M33.84,83.76h30.62v-18.22H30.25c-.25-.92-.37-1.82-.37-2.73,0-9.84,4.91-14.75,14.75-14.75,3.64,0,6.9,1.24,9.8,3.72l9.79-16.74c-5.79-4.05-12.32-6.08-19.59-6.08-9.34,0-17.31,3.31-23.93,9.92-6.61,6.61-9.92,14.59-9.92,23.93,0,3.39.58,6.9,1.74,10.54C4.35,80.05.25,88.57.07,98.84h-.07v2.85c0,8.56,6.94,15.5,15.5,15.5h118.58v-18.35H19.18c.23-9.99,5.07-15.08,14.66-15.08Z"/>
  <rect class="cls-1" x="78.77" y="16.74" width="17.97" height="42.3"/>
  <polygon class="cls-1" points="134.08 83.68 74.28 83.68 74.28 65.56 102.87 65.56 102.87 0 120.86 0 120.86 65.56 133.19 65.56 134.08 83.68"/>
  <polygon class="cls-1" points="137.22 28.72 139.93 83.76 160.01 83.76 162.72 28.72 137.22 28.72"/>
  <rect class="cls-1" x="139.93" y="98.84" width="20.08" height="18.35"/>
</svg>